<svg xmlns="http://www.w3.org/2000/svg" xmlns:xlink="http://www.w3.org/1999/xlink" width="200" zoomAndPan="magnify" viewBox="0 0 150 37.5" height="50" preserveAspectRatio="xMidYMid meet" version="1.0"><defs><g/><clipPath id="ad070ad4d8"><path d="M 0.988281 0 L 149.011719 0 L 149.011719 37.007812 L 0.988281 37.007812 Z M 0.988281 0 " clip-rule="nonzero"/></clipPath></defs><g clip-path="url(#ad070ad4d8)"><path fill="#ffffff" d="M 0.988281 0 L 149.011719 0 L 149.011719 37.007812 L 0.988281 37.007812 Z M 0.988281 0 " fill-opacity="1" fill-rule="nonzero"/><path fill="#ffffff" d="M 0.988281 0 L 149.011719 0 L 149.011719 37.007812 L 0.988281 37.007812 Z M 0.988281 0 " fill-opacity="1" fill-rule="nonzero"/></g><g fill="#00bf63" fill-opacity="1"><g transform="translate(4.720805, 29.693752)"><g><path d="M 6.84375 0.21875 C 4.632812 0.21875 3.039062 -0.320312 2.0625 -1.40625 C 1.082031 -2.5 0.59375 -4.257812 0.59375 -6.6875 L 0.59375 -9.0625 L 5.375 -9.0625 L 5.375 -6.046875 C 5.375 -4.835938 5.757812 -4.234375 6.53125 -4.234375 C 6.957031 -4.234375 7.253906 -4.359375 7.421875 -4.609375 C 7.597656 -4.867188 7.6875 -5.300781 7.6875 -5.90625 C 7.6875 -6.695312 7.59375 -7.347656 7.40625 -7.859375 C 7.21875 -8.378906 6.976562 -8.8125 6.6875 -9.15625 C 6.394531 -9.507812 5.867188 -10.054688 5.109375 -10.796875 L 3.015625 -12.875 C 1.398438 -14.457031 0.59375 -16.210938 0.59375 -18.140625 C 0.59375 -20.210938 1.066406 -21.789062 2.015625 -22.875 C 2.972656 -23.957031 4.363281 -24.5 6.1875 -24.5 C 8.375 -24.5 9.945312 -23.914062 10.90625 -22.75 C 11.863281 -21.59375 12.34375 -19.78125 12.34375 -17.3125 L 7.40625 -17.3125 L 7.375 -18.984375 C 7.375 -19.304688 7.285156 -19.5625 7.109375 -19.75 C 6.929688 -19.9375 6.679688 -20.03125 6.359375 -20.03125 C 5.984375 -20.03125 5.695312 -19.925781 5.5 -19.71875 C 5.3125 -19.507812 5.21875 -19.226562 5.21875 -18.875 C 5.21875 -18.082031 5.671875 -17.257812 6.578125 -16.40625 L 9.40625 -13.703125 C 10.0625 -13.054688 10.609375 -12.445312 11.046875 -11.875 C 11.484375 -11.300781 11.832031 -10.625 12.09375 -9.84375 C 12.351562 -9.0625 12.484375 -8.132812 12.484375 -7.0625 C 12.484375 -4.664062 12.046875 -2.851562 11.171875 -1.625 C 10.296875 -0.394531 8.851562 0.21875 6.84375 0.21875 Z M 6.84375 0.21875 "/></g></g></g><g fill="#00bf63" fill-opacity="1"><g transform="translate(17.740633, 29.693752)"><g><path d="M 0.421875 0 L 2.765625 -24.265625 L 10.984375 -24.265625 L 13.3125 0 L 8.703125 0 L 8.359375 -3.921875 L 5.421875 -3.921875 L 5.140625 0 Z M 5.796875 -7.796875 L 8 -7.796875 L 6.921875 -20.140625 L 6.6875 -20.140625 Z M 5.796875 -7.796875 "/></g></g></g><g fill="#00bf63" fill-opacity="1"><g transform="translate(31.438286, 29.693752)"><g><path d="M 1.078125 -24.265625 L 7.484375 -24.265625 C 9.421875 -24.265625 10.800781 -23.640625 11.625 -22.390625 C 12.457031 -21.140625 12.875 -19.304688 12.875 -16.890625 C 12.875 -14.484375 12.503906 -12.664062 11.765625 -11.4375 C 11.035156 -10.21875 9.722656 -9.609375 7.828125 -9.609375 L 5.84375 -9.609375 L 5.84375 0 L 1.078125 0 Z M 6.125 -13.984375 C 6.707031 -13.984375 7.132812 -14.09375 7.40625 -14.3125 C 7.6875 -14.53125 7.867188 -14.835938 7.953125 -15.234375 C 8.035156 -15.640625 8.078125 -16.222656 8.078125 -16.984375 C 8.078125 -17.992188 7.960938 -18.722656 7.734375 -19.171875 C 7.515625 -19.628906 7.066406 -19.859375 6.390625 -19.859375 L 5.84375 -19.859375 L 5.84375 -13.984375 Z M 6.125 -13.984375 "/></g></g></g><g fill="#00bf63" fill-opacity="1"><g transform="translate(44.768787, 29.693752)"><g><path d="M 6.6875 0.21875 C 4.695312 0.21875 3.21875 -0.34375 2.25 -1.46875 C 1.28125 -2.59375 0.796875 -4.269531 0.796875 -6.5 L 0.796875 -24.265625 L 5.515625 -24.265625 L 5.515625 -6.6875 C 5.515625 -5.914062 5.585938 -5.3125 5.734375 -4.875 C 5.878906 -4.445312 6.195312 -4.234375 6.6875 -4.234375 C 7.1875 -4.234375 7.507812 -4.445312 7.65625 -4.875 C 7.800781 -5.300781 7.875 -5.90625 7.875 -6.6875 L 7.875 -24.265625 L 12.59375 -24.265625 L 12.59375 -6.5 C 12.59375 -4.269531 12.109375 -2.59375 11.140625 -1.46875 C 10.171875 -0.34375 8.6875 0.21875 6.6875 0.21875 Z M 6.6875 0.21875 "/></g></g></g><g fill="#00bf63" fill-opacity="1"><g transform="translate(58.155766, 29.693752)"><g/></g></g><g fill="#00bf63" fill-opacity="1"><g transform="translate(64.764538, 29.693752)"><g><path d="M 6.078125 0.21875 C 4.328125 0.21875 3.019531 -0.394531 2.15625 -1.625 C 1.300781 -2.851562 0.875 -4.722656 0.875 -7.234375 L 0.875 -17.6875 C 0.875 -19.925781 1.375 -21.617188 2.375 -22.765625 C 3.375 -23.921875 4.863281 -24.5 6.84375 -24.5 C 8.4375 -24.5 9.675781 -24.175781 10.5625 -23.53125 C 11.445312 -22.894531 12.054688 -21.960938 12.390625 -20.734375 C 12.734375 -19.515625 12.90625 -17.941406 12.90625 -16.015625 L 8.171875 -16.015625 L 8.171875 -18.1875 C 8.171875 -18.769531 8.085938 -19.222656 7.921875 -19.546875 C 7.765625 -19.867188 7.476562 -20.03125 7.0625 -20.03125 C 6.132812 -20.03125 5.671875 -19.425781 5.671875 -18.21875 L 5.671875 -6.46875 C 5.671875 -5.738281 5.765625 -5.179688 5.953125 -4.796875 C 6.148438 -4.421875 6.484375 -4.234375 6.953125 -4.234375 C 7.421875 -4.234375 7.75 -4.421875 7.9375 -4.796875 C 8.125 -5.179688 8.21875 -5.738281 8.21875 -6.46875 L 8.21875 -9.9375 L 6.921875 -9.9375 L 6.921875 -14.125 L 12.859375 -14.125 L 12.859375 0 L 10.90625 0 L 10.078125 -2.03125 C 9.210938 -0.53125 7.878906 0.21875 6.078125 0.21875 Z M 6.078125 0.21875 "/></g></g></g><g fill="#00bf63" fill-opacity="1"><g transform="translate(78.462191, 29.693752)"><g><path d="M 1.078125 0 L 1.078125 -24.265625 L 5.9375 -24.265625 L 5.9375 -4.125 L 10.9375 -4.125 L 10.9375 0 Z M 1.078125 0 "/></g></g></g><g fill="#00bf63" fill-opacity="1"><g transform="translate(89.674494, 29.693752)"><g><path d="M 0.421875 0 L 2.765625 -24.265625 L 10.984375 -24.265625 L 13.3125 0 L 8.703125 0 L 8.359375 -3.921875 L 5.421875 -3.921875 L 5.140625 0 Z M 5.796875 -7.796875 L 8 -7.796875 L 6.921875 -20.140625 L 6.6875 -20.140625 Z M 5.796875 -7.796875 "/></g></g></g><g fill="#00bf63" fill-opacity="1"><g transform="translate(103.372146, 29.693752)"><g><path d="M 6.078125 0.21875 C 4.328125 0.21875 3.019531 -0.394531 2.15625 -1.625 C 1.300781 -2.851562 0.875 -4.722656 0.875 -7.234375 L 0.875 -17.6875 C 0.875 -19.925781 1.375 -21.617188 2.375 -22.765625 C 3.375 -23.921875 4.863281 -24.5 6.84375 -24.5 C 8.4375 -24.5 9.675781 -24.175781 10.5625 -23.53125 C 11.445312 -22.894531 12.054688 -21.960938 12.390625 -20.734375 C 12.734375 -19.515625 12.90625 -17.941406 12.90625 -16.015625 L 8.171875 -16.015625 L 8.171875 -18.1875 C 8.171875 -18.769531 8.085938 -19.222656 7.921875 -19.546875 C 7.765625 -19.867188 7.476562 -20.03125 7.0625 -20.03125 C 6.132812 -20.03125 5.671875 -19.425781 5.671875 -18.21875 L 5.671875 -6.46875 C 5.671875 -5.738281 5.765625 -5.179688 5.953125 -4.796875 C 6.148438 -4.421875 6.484375 -4.234375 6.953125 -4.234375 C 7.421875 -4.234375 7.75 -4.421875 7.9375 -4.796875 C 8.125 -5.179688 8.21875 -5.738281 8.21875 -6.46875 L 8.21875 -9.9375 L 6.921875 -9.9375 L 6.921875 -14.125 L 12.859375 -14.125 L 12.859375 0 L 10.90625 0 L 10.078125 -2.03125 C 9.210938 -0.53125 7.878906 0.21875 6.078125 0.21875 Z M 6.078125 0.21875 "/></g></g></g><g fill="#00bf63" fill-opacity="1"><g transform="translate(117.069799, 29.693752)"><g><path d="M 0.421875 0 L 2.765625 -24.265625 L 10.984375 -24.265625 L 13.3125 0 L 8.703125 0 L 8.359375 -3.921875 L 5.421875 -3.921875 L 5.140625 0 Z M 5.796875 -7.796875 L 8 -7.796875 L 6.921875 -20.140625 L 6.6875 -20.140625 Z M 5.796875 -7.796875 "/></g></g></g><g fill="#00bf63" fill-opacity="1"><g transform="translate(130.767451, 29.693752)"><g><path d="M 1.078125 0 L 1.078125 -24.265625 L 5.90625 -24.265625 L 5.90625 -15.59375 L 8.1875 -15.59375 L 8.1875 -24.265625 L 13.015625 -24.265625 L 13.015625 0 L 8.1875 0 L 8.1875 -11.015625 L 5.90625 -11.015625 L 5.90625 0 Z M 1.078125 0 "/></g></g></g><g fill="#00bf63" fill-opacity="1"><g transform="translate(144.868032, 29.693752)"><g/></g></g></svg>